<svg id="visual" viewBox="0 0 900 600" width="900" height="600" xmlns="http://www.w3.org/2000/svg" xmlns:xlink="http://www.w3.org/1999/xlink" version="1.1"><rect x="0" y="0" width="900" height="600" fill="#fbfdff"></rect><path d="M0 558L21.5 550.2C43 542.3 86 526.7 128.8 525.5C171.7 524.3 214.3 537.7 257.2 543.8C300 550 343 549 385.8 551.3C428.7 553.7 471.3 559.3 514.2 555.2C557 551 600 537 642.8 531C685.7 525 728.3 527 771.2 524.7C814 522.3 857 515.7 878.5 512.3L900 509L900 601L878.5 601C857 601 814 601 771.2 601C728.3 601 685.7 601 642.8 601C600 601 557 601 514.2 601C471.3 601 428.7 601 385.8 601C343 601 300 601 257.2 601C214.3 601 171.7 601 128.8 601C86 601 43 601 21.5 601L0 601Z" fill="#0A6BD9" stroke-linecap="round" stroke-linejoin="miter"></path></svg>