<svg id="visual" viewBox="0 0 900 600" width="900" height="600" xmlns="http://www.w3.org/2000/svg" xmlns:xlink="http://www.w3.org/1999/xlink" version="1.1"><rect x="0" y="0" width="900" height="600" fill="#fbfdff"></rect><path d="M0 579L21.5 575C43 571 86 563 128.8 562.3C171.7 561.7 214.3 568.3 257.2 571.3C300 574.3 343 573.7 385.8 574.8C428.7 576 471.3 579 514.2 577C557 575 600 568 642.8 565C685.7 562 728.3 563 771.2 561.8C814 560.7 857 557.3 878.5 555.7L900 554L900 601L878.5 601C857 601 814 601 771.2 601C728.3 601 685.7 601 642.8 601C600 601 557 601 514.2 601C471.3 601 428.7 601 385.8 601C343 601 300 601 257.2 601C214.3 601 171.7 601 128.8 601C86 601 43 601 21.5 601L0 601Z" fill="#0A6BD9" stroke-linecap="round" stroke-linejoin="miter"></path></svg>