<svg id="visual" viewBox="0 0 900 600" width="900" height="600" xmlns="http://www.w3.org/2000/svg" xmlns:xlink="http://www.w3.org/1999/xlink" version="1.1"><rect x="0" y="0" width="900" height="600" fill="#fbfdff"></rect><path d="M0 517L15 510.3C30 503.7 60 490.3 90 477.7C120 465 150 453 180 455.5C210 458 240 475 270 485.5C300 496 330 500 360 503.5C390 507 420 510 450 503.5C480 497 510 481 540 480C570 479 600 493 630 498.8C660 504.7 690 502.3 720 496.8C750 491.3 780 482.7 810 470.3C840 458 870 442 885 434L900 426L900 601L885 601C870 601 840 601 810 601C780 601 750 601 720 601C690 601 660 601 630 601C600 601 570 601 540 601C510 601 480 601 450 601C420 601 390 601 360 601C330 601 300 601 270 601C240 601 210 601 180 601C150 601 120 601 90 601C60 601 30 601 15 601L0 601Z" fill="#066ad9"></path><path d="M0 529L15 532.5C30 536 60 543 90 537.2C120 531.3 150 512.7 180 504.5C210 496.3 240 498.7 270 504C300 509.3 330 517.7 360 523.3C390 529 420 532 450 527.7C480 523.3 510 511.7 540 514.5C570 517.3 600 534.7 630 538.5C660 542.3 690 532.7 720 526.8C750 521 780 519 810 514.7C840 510.3 870 503.7 885 500.3L900 497L900 601L885 601C870 601 840 601 810 601C780 601 750 601 720 601C690 601 660 601 630 601C600 601 570 601 540 601C510 601 480 601 450 601C420 601 390 601 360 601C330 601 300 601 270 601C240 601 210 601 180 601C150 601 120 601 90 601C60 601 30 601 15 601L0 601Z" fill="#0068a0"></path><path d="M0 539L15 544.3C30 549.7 60 560.3 90 567.5C120 574.7 150 578.3 180 576.7C210 575 240 568 270 568C300 568 330 575 360 567.2C390 559.3 420 536.7 450 533.8C480 531 510 548 540 553.7C570 559.3 600 553.7 630 550.7C660 547.7 690 547.3 720 553.8C750 560.3 780 573.7 810 576.5C840 579.3 870 571.7 885 567.8L900 564L900 601L885 601C870 601 840 601 810 601C780 601 750 601 720 601C690 601 660 601 630 601C600 601 570 601 540 601C510 601 480 601 450 601C420 601 390 601 360 601C330 601 300 601 270 601C240 601 210 601 180 601C150 601 120 601 90 601C60 601 30 601 15 601L0 601Z" fill="#455a64"></path></svg>